/* XPM */
static char *_800_2c5eb69a07bbc47cbfeb03a665d6e3a1b101732a8382cadd7de7ef582760625d[] = {
/* columns rows colors chars-per-pixel */
"64 64 160 2 ",
"   c #286F35",
".  c #276B46",
"X  c #2B674E",
"o  c #29684B",
"O  c #32674B",
"+  c #2D655F",
"@  c #2B6858",
"#  c #306656",
"$  c #30615D",
"%  c #2D5F63",
"&  c #2E5A6E",
"*  c #325D6C",
"=  c #2E5C76",
"-  c #2F5B78",
";  c #335C74",
":  c #335C7B",
">  c #385A7F",
",  c #2D6264",
"<  c #2D616F",
"1  c #316365",
"2  c #326966",
"3  c #31616C",
"4  c #34686A",
"5  c #3B6E69",
"6  c #3F776E",
"7  c #336274",
"8  c #396A73",
"9  c #3E6A7D",
"0  c #447969",
"q  c #5DBE3D",
"w  c #60BE3D",
"e  c #5DC337",
"r  c #5EC13D",
"t  c #61C23D",
"y  c #529C55",
"u  c #5DBE42",
"i  c #5EBB4C",
"p  c #5EBC52",
"a  c #5FB45C",
"s  c #62BE43",
"d  c #62B74F",
"f  c #63BD4C",
"g  c #61B655",
"h  c #64BB54",
"j  c #6ABB55",
"k  c #65B55C",
"l  c #6BB65E",
"z  c #64BA5C",
"x  c #69BB5C",
"c  c #4B856E",
"v  c #4E916E",
"b  c #4B8173",
"n  c #4D8578",
"m  c #528E72",
"M  c #6EAF6B",
"N  c #65B564",
"B  c #69B563",
"V  c #65B964",
"C  c #69B963",
"Z  c #65B36B",
"A  c #69B36C",
"S  c #6AB96B",
"D  c #69AF75",
"F  c #67AF7E",
"G  c #6CAD7D",
"H  c #70AF78",
"J  c #66B273",
"K  c #6AB373",
"L  c #67B17A",
"P  c #6BB17B",
"I  c #70B17B",
"U  c #5DC242",
"Y  c #5EC049",
"T  c #62C143",
"R  c #64C34A",
"E  c #65C250",
"W  c #68C052",
"Q  c #2E5689",
"!  c #355784",
"~  c #355B83",
"^  c #3B5B84",
"/  c #35558D",
"(  c #38568C",
")  c #35598B",
"_  c #3A5B8C",
"`  c #364F92",
"'  c #364E9D",
"]  c #394F9D",
"[  c #365493",
"{  c #395595",
"}  c #355A92",
"|  c #365299",
" . c #3A539B",
".. c #36589B",
"X. c #3D6080",
"o. c #354EA4",
"O. c #3A4DA4",
"+. c #3B47AB",
"@. c #364CAB",
"#. c #3B4DAB",
"$. c #3651A4",
"%. c #3B51A4",
"&. c #3E51A9",
"*. c #3E47B4",
"=. c #364AB2",
"-. c #3C4BB3",
";. c #3D46BD",
":. c #3E49BE",
">. c #3D51B3",
",. c #457583",
"<. c #497787",
"1. c #44708D",
"2. c #547F8F",
"3. c #517E93",
"4. c #404FAC",
"5. c #4050A7",
"6. c #4152AA",
"7. c #404DB4",
"8. c #4147BE",
"9. c #4149BD",
"0. c #4350B9",
"q. c #567BA8",
"w. c #3745C0",
"e. c #3E47C3",
"r. c #3F48C1",
"t. c #4147C2",
"y. c #4149C3",
"u. c #4047C9",
"i. c #424AC9",
"p. c #518D81",
"a. c #54858C",
"s. c #5E928E",
"d. c #5F9D88",
"f. c #5D889B",
"g. c #5D9596",
"h. c #65988F",
"j. c #609394",
"k. c #629B94",
"l. c #66999C",
"z. c #6BAC83",
"x. c #6CA58D",
"c. c #6CAB8A",
"v. c #71AD89",
"b. c #6DB185",
"n. c #6CA394",
"m. c #6DAA93",
"M. c #6EA69D",
"N. c #6FA99D",
"B. c #72A794",
"V. c #71AA92",
"C. c #71A69B",
"Z. c #70A99B",
"A. c #789DB8",
"S. c #6FA5A4",
"D. c #6EAAA2",
"F. c #6FA4A8",
"G. c #71A4A5",
"H. c #71A8A5",
"J. c #73A3AA",
"K. c #73A0B3",
/* pixels */
"r.r.r.r.:.r.r.r.r.r.t.r.r.r.r.r.r.:.t.t.t.r.e.r.r.:.:.:.y.t.u.e.t.:.r.r.i.e.i.y.8.8.:.8.r.r.r.r.r.r.r.r.r.r.r.r.r.r.t.r.:.r.r.r.",
"r.r.r.t.t.r.r.r.t.r.r.r.r.r.r.:.r.r.8.t.y.e.r.e.r.r.t.t.y.t.t.e.r.t.r.e.e.e.:.y.8.8.8.t.r.r.r.r.r.r.r.r.:.t.r.r.t.r.r.r.r.r.r.r.",
"r.r.r.r.r.r.r.r.r.r.r.r.r.r.r.r.e.e.t.r.t.e.e.r.:.8.r.r.:.:.r.r.:.e.e.w.r.:.r.y.t.t.y.y.t.r.r.e.r.r.r.r.r.r.r.r.:.r.r.r.r.r.r.t.",
"r.:.r.r.r.r.r.r.r.:.r.r.t.r.r.r.r.r.8.:.t.t.e.r.:.;.i.i.8.:.:.8.r.r.e.e.w.:.r.:.u.t.t.e.t.r.r.r.r.r.r.r.r.r.r.r.r.r.r.r.r.r.r.r.",
"r.t.r.r.r.r.r.r.r.r.t.r.r.r.r.:.r.r.:.:.r.t.:.:.:.r.y.e.t.8.8.-.8.t.t.8.r.:.:.r.r.r.r.:.r.e.r.:.t.r.r.t.r.r.r.r.r.r.r.r.:.t.r.r.",
"r.r.t.:.r.r.r.r.r.r.:.r.r.r.r.r.r.r.r.:.:.e.:.:.:.:.9.:.4.O. .{ ` { {  .>.r.r.r.e.e.r.:.e.r.:.:.:.r.r.r.r.r.r.r.r.r.r.r.r.r.r.r.",
"r.r.r.r.r.r.r.8.r.r.r.r.r.r.r.r.e.e.:.:.t.t.8.:.:.-.$...~ 3 1 m.G A M B...r.r.r.r.r.r.r.e.e.9.9.8.r.r.r.r.r.r.t.r.t.r.r.r.r.r.r.",
"r.r.r.r.r.r.r.r.r.r.r.r.r.r.r.r.y.r.r.:.9.*.#.%.} ) - F.m.z.J k f j g c...r.e.r.r.r.r.r.r.e.8.8.8.r.r.r.r.r.r.:.r.:.t.:.r.r.r.r.",
"r.t.r.r.r.:.r.r.r.t.r.r.r.r.:.t.t.t.r.=.@.} ~ 1 z.A Z N V h h h x J N.~ $.r.t.t.t.r.r.r.e.r.r.:.:.r.r.r.r.r.r.r.r.r.r.r.r.t.r.r.",
"r.:.r.r.r.r.r.r.r.r.r.t.r.r.t.:.9.*.$.X.7 F.m.K h s h z x C V J c.2 Q $.:.e.y.t.t.e.r.r.e.e.r.:.r.r.r.r.:.r.t.r.r.r.r.r.r.r.r.:.",
"r.r.r.r.t.r.t.r.r.r.r.r.r.t.r.-.&.! % c.K B k h T i K z.c.C.X._ [ %.&.=.:.e.e.y.t.t.r.e.y.y.y.:.t.:.t.r.r.r.r.r.r.r.t.r.r.t.r.r.",
"r.r.r.r.r.r.r.r.:.r.r.r.r.e.y.#.! S.F V C B B A Z F 0 7 ; ^ o.-.:.;.r.i.e.e.y.e.t.t.t.t.t.t.t.r.t.t.r.r.r.r.r.r.r.r.:.r.r.r.r.r.",
"r.r.r.r.r.r.r.r.r.r.r.r.r.r.r.%.J.P x g H x.a.~ Q ....&.o.#.t.i.e.u.t.:.r.r.;.:.8.8.t.t.t.r.e.e.r.r.r.r.r.r.t.r.r.r.t.:.r.r.r.:.",
"r.r.:.t.r.r.r.r.r.r.r.r.r.r.e. ., Z h z # ^ ] >.:.e.r.r.e.e.e.e.u.e.r.:.e.r.r.t.t.8.t.e.:.r.w.r.r.r.r.r.r.r.:.r.r.r.r.r.r.r.r.r.",
"r.r.r.r.t.r.r.:.r.r.r.r.r.r.e.%.= L h S ; @.:.;.:.t.r.:.t.:.t.y.y.:.:.8.i.e.e.y.r.r.:.r.r.r.r.r.r.r.r.r.r.r.t.r.r.r.r.r.r.r.t.r.",
"r.r.r.r.:.:.r.t.r.r.r.r.r.t.:.#.: c.x J / y.t.t.t.8.8.t.8.:.t.t.:.t.;.:.e.y.t.e.r.:.#.&.-.:.:.r.r.r.r.r.r.r.:.r.r.r.r.r.r.r.r.r.",
":.8.t.8.:.:.8.r.:.e.t.e.r.r.t.O.; z.z J } ;.:.e.e.e.t.:.r.y.9.9.9.:.w.e.t.t.t.t.e.-.) ) %.-.:.:.r.t.r.r.r.r.r.r.r.r.r.r.r.:.r.r.",
"r.:.t.t.:.:.:.:.:.:.e.r.e.e.8. .1 I h J [ r.:.r.y.e.:.y.e.;.y.:.&.$.$.|  .{ [ { } ~ k.D.q.%.*.:.r.:.r.r.r.r.r.r.r.r.r.r.r.t.r.r.",
"e.e.r.r.e.r.e.8.t.:.i.e.:.:.:. .c V h J ) :.:.r.r.:.t.:.e.i.r.-.~ 3 + x.G M A Z A V a Z N.) >.e.t.r.r.r.r.r.r.r.8.r.r.r.r.r.r.r.",
"t.e.e.y.e.8.:.:.e.e.e.e.:.:.:.[ v.h x z.{ ;.:.r.y.:.0.+.%.| { : C.P Z z j T t e e T z F F.) #.y.:.r.r.r.t.:.r.r.r.r.r.r.:.t.r.r.",
"e.e.e.r.r.r.8.8.t.y.t.t.y.:.;.[ P z P % %.t.i.t.r.=.' ! % c.P Z V z i E q U U r e h c.:  .+.:.:.:.r.r.t.r.r.r.r.r.r.r.r.r.r.r.r.",
"e.e.e.r.e.t.8.8.:.8.t.t.t.t.:.) Z h c.: +.9.*.5.{ _ <.m.L x s T s T T s T T h z N c.: &.8.i.;.:.:.r.r.r.r.r.r.r.r.r.r.r.r.r.t.r.",
"r.r.r.r.e.e.t.8.t.8.t.t.e.9.#.: V h z.; #.+._ 1 G A V x i Y s s s T u U w g P N.~ { #.8.e.t.t.r.t.r.r.r.:.r.r.r.r.r.t.r.:.r.r.r.",
":.r.:.r.e.r.t.:.:.e.y.:.t.#...l.z f P $ ^ > B.K f w r r r r T s s T U i S z., ) =.e.r.e.y.t.y.t.r.r.r.r.r.r.r.t.t.:.r.r.r.r.r.r.",
":.:.r.r.r.8.:.:.r.e.e.i.:.$.~ m.z f k y K Z x h T w t t r U t s w R f y * { $.#.:.r.r.r.r.t.t.t.:.r.r.r.:.r.r.r.r.r.r.r.r.r.r.r.",
"9.y.r.r.8.9.8.:.:.e.y.e.r.$.3 P h u W d U U T U r T s f p V Z N s s s K { r.:.r.r.e.r.r.r.t.t.r.r.r.r.r.r.t.r.r.r.r.r.:.r.r.t.r.",
"y.i.e.r.8.9.r.e.r.:.e.e.:.[ m l f T s u U U e U U s f B F D.~ 3 N U U K ) r.r.r.t.e.e.e.e.r.r.r.r.r.r.t.r.r.r.r.r.r.r.y.r.r.:.r.",
"t.e.r.r.:.t.e.r.r.:.t.;.7._ G f s T T u U Y Y a V A P c < ) >.[ J U R J [ r.r.r.y.y.e.e.e.r.r.:.r.t.r.r.r.r.r.r.r.r.r.r.r.r.r.r.",
"t.r.e.e.e.r.t.r.r.r.8.7.5.A.A s T s s R r i K m.G.; ~  .%.#.8.( K s q K } y.:.:.8.t.t.t.r.r.r.r.r.r.r.r.r.r.r.r.r.r.r.r.r.:.r.r.",
"8.:.e.e.e.r.8.:.r.r.8.0.O.> K h f f x a V z.3 ~ [ O.9.8.:.t.:./ Z R f z. .r.-.+.%.#.4.O.%.$.$.&.:.:.r.r.t.r.r.r.r.r.r.r.r.t.r.r.",
":.r.r.e.e.e.y.r.:.:.8.9.8.{ B.Z V N G h.X.[ o.+.-.9.9.;.r.r.r.) K f N n  .:.| } ~ - > ; : ; - / &.r.r.:.r.r.r.r.:.r.r.t.r.t.r.r.",
":.r.r.e.e.i.y.r.:.:.8.t.8.O.; p.V.0 * ( =.r.t.i.t.e.r.:.r.r.:.) Z f A o : ~ 9 H.c.c.v.z.c.c.m.K.&.r.r.t.r.e.r.r.r.8.r.r.:.:.r.r.",
"r.r.r.r.e.r.8.r.:.:.8.t.:.:.&. . ...%.#.8.e.t.t.t.:.r.:.=.:.r./ J s f z N A B x z z p h z B K G.O.t.:.:.y.t.e.e.r.:.:.r.:.:.:.t.",
"r.r.r.:.r.r.r.r.e.r.r.r.r.r.r.r.e.r.y.r.t.y.:.i.t.:.-.&. .| [ 8 N U q t t w s s T u U R d B v.; 4.t.:.:.y.r.u.e.r.8.t.r.:.:.:.t.",
"r.r.r.r.r.r.r.r.r.r.r.r.r.r.r.r.t.e.r.r.:.r.r.r.r.=.%.: 1 v.D B f U U s s t s s s u U i J n.! O.-.8.r.:.y.y.r.e.r.:.t.t.r.r.r.t.",
"r.r.t.r.r.r.r.r.r.r.r.r.r.r.r.r.t.e.:.r.:.:.:.@..._ ,.n.K B R r T r q U T s w f h V Z z., ) @.y.t.:.r.:.r.r.r.e.r.r.r.t.r.e.e.t.",
"r.r.r.r.r.r.r.r.r.r.r.r.r.r.r.r.e.t.8.:.:.-.$.~ x.D B z p Y U r r T U U r U Y z K N.> | %.@.r.e.y.t.8.:.9.8.r.e.r.r.8.t.r.e.e.e.",
"r.r.r.r.r.r.r.r.r.t.:.r.r.r.r.r.t.t.t.8.8.@.{ F.N s w r U U r r U u E z z V Z b., ~ #.:.y.i.e.e.e.t.8.;.8.r.r.e.r.t.t.t.r.e.r.r.",
"r.r.t.:.:.t.r.r.r.r.r.r.r.t.r.r.t.t.y.;.e.>.! B.B s T q U U R U s h Z c.x.a.Q } %.#.7.t.t.t.t.y.8.7.9.9.e.e.e.e.:.8.8.t.r.:.:.:.",
"r.r.r.r.r.r.r.r.r.t.r.r.r.r.r.r.t.t.9.9.y.@.! B.B f R f h z N S A z.5 & ^ [ >.:.+.O.4.4.O.4.#.+.:.:.8.9.r.e.e.e.8.9.8.t.r.:.:.:.",
"r.r.t.r.r.:.r.r.:.r.r.r.r.r.r.:.8.8.8.t.i.#.} J.A g N J b.m.f.~ ( { | #.+.7.:.#./ > : ; = : - [ >.r.y.:.r.r.r.e.r.y.t.t.r.:.:.:.",
"t.r.r.r.r.r.r.r.t.r.r.r.r.r.r.t.:.:.8.:.8.:.o.) b v.h.2 & _ %.=.8.:.i.8.7.] { > C.V.c.c.c.c.m.g.Q @.:.t.r.:.e.r.e.y.t.t.r.t.:.:.",
":.r.r.r.r.r.r.t.r.r.r.r.t.r.r.e.e.e.:.:.r.:.9.#. .{ ]  .%.&.-.:.e.r.r.-./ * z.Z C z g h h z z Z m.7 &.;.r.:.:.:.e.y.t.r.y.e.r.:.",
"r.r.r.r.r.r.r.r.r.r.r.r.r.:.r.r.e.i.r.:.r.e.r.y.8.8.8.:.r.r.;.:.r.y.-.{ J.D h t r T T t r U e R B m...:.:.r.:.r.e.t.r.r.e.e.r.r.",
"r.r.r.r.r.:.t.r.r.8.r.r.r.r.r.r.e.w.e.e.w.i.y.e.:.9.y.:.:.8.t.8.8.#.[ a.A f s t T s w w t q t s f G / 8.y.y.:.:.:.e.r.e.e.y.t.t.",
"r.r.r.r.r.r.r.r.r.r.r.r.:.r.r.r.t.r.i.t.e.w.e.t.:.:.r.r.t.8.t.9.#.) 8 z.g R p h k h f i T t U T r A / :.:.r.:.:.t.r.r.:.e.e.t.t.",
"r.r.8.r.r.r.r.r.r.r.r.r.t.r.t.r.:.t.8.:.y.r.e.r.r.r.e.e.y.t.8.+.~ N.K B B J P c.z.b.K z f T q U T Z } t.r.t.r.e.t.r.r.r.:.:.t.t.",
"r.r.r.r.r.r.r.r.r.r.r.r.r.r.r.r.t.:.8.e.y.e.:.t.e.e.e.e.e.e.:.%.4 K z d S . , < , X   x f U U T T J } e.e.t.r.r.r.:.r.r.8.9.t.t.",
"t.r.r.r.t.:.r.r.r.r.r.r.t.:.r.r.r.t.:.:.r.t.:.8.r.r.r.r.e.t.r.{ z.h s f Z @ / ..* O B f u U U T f P } r.y.e.y.r.r.r.r.r.:.8.t.y.",
":.r.r.r.r.r.r.r.r.r.r.r.r.r.r.r.r.r.r.r.r.r.r.r.r.r.r.r.r.r.r.[ K T w i Z v 7 7 l.H j s Y U U s x m ..w.t.t.e.t.r.:.e.e.:.8.y.t.",
"r.:.r.r.r.r.r.r.r.r.r.r.r.r.r.r.r.r.r.r.r.r.r.r.r.r.r.r.r.r.8.[ D w t T f V Z Z x h T U r R U z z.7 $.r.e.t.t.e.:.:.r.e.8.t.t.e.",
"r.r.t.r.r.r.r.r.t.:.r.r.r.r.r.t.r.r.r.r.r.r.r.r.r.r.r.t.r.r.r...c.j s t U U s U T w U r r r s A g.} >.e.8.8.t.y.:.r.e.e.t.r.r.r.",
"r.r.r.r.t.r.t.r.r.r.r.r.r.:.r.t.r.r.r.t.r.r.t.r.r.r.r.r.r.r.r.%.; b.h t U U u T q T U U q s k z.! @.:.e.t.8.:.t.8.r.t.u.r.r.r.:.",
"r.r.:.r.r.r.:.r.r.r.r.r.r.r.r.r.r.r.r.:.r.r.r.r.r.r.r.r.r.r.8.-.[ a.K j Y r T T T q U U i C z.* &.y.t.t.8.8.8.8.:.e.t.u.e.r.:.r.",
"r.r.r.r.r.r.r.r.r.r.:.t.r.r.r.r.r.r.r.t.r.r.r.r.r.r.r.r.t.r.r.:.=.[ H.J j T T w t t U f V z.X.&.:.e.e.t.t.:.8.:.t.t.e.y.r.:.:.:.",
"r.t.r.r.r.r.r.r.t.r.r.r.r.r.r.r.r.r.r.r.r.:.r.r.r.r.t.:.r.r.:.r.i.#.) 4 D A l g f z A P x.< o.r.e.y.t.e.y.:.:.:.t.t.e.r.r.r.:.:.",
"r.r.r.r.r.t.r.r.:.r.r.r.r.r.t.r.r.r.r.r.r.t.:.r.r.r.r.r.r.r.r.r.t.-.&.| } 3.m.v.m.s.1.} { &.:.r.r.:.r.r.r.r.:.r.t.t.t.t.r.:.:.r.",
"r.r.r.t.r.r.r.r.r.r.r.r.r.r.r.r.r.r.r.r.r.:.r.r.r.r.r.r.r.r.r.t.y.y.r.:.=.O.! : ^ } #.=.:.e.e.y.:.:.r.r.r.:.:.t.t.t.8.t.r.r.r.:.",
"r.r.r.r.r.r.r.r.r.r.r.r.r.r.:.r.t.:.r.r.r.r.r.t.t.:.:.r.r.r.r.e.e.e.r.:.:.:.O.4.#.-.-.:.:.r.e.e.y.r.r.r.:.:.r.e.t.e.e.t.e.e.r.r.",
"t.:.r.r.r.:.r.r.r.r.t.:.t.r.r.r.r.r.r.r.r.r.r.r.r.r.t.r.r.r.r.e.e.e.e.r.r.t.8.:.t.r.:.:.:.r.r.e.t.r.r.w.:.r.e.t.t.y.r.:.e.r.t.t.",
"r.r.r.r.r.r.r.:.r.t.r.r.r.r.r.r.r.r.r.r.r.r.r.r.r.r.r.r.r.r.r.r.y.t.9.:.:.r.t.:.e.e.e.y.y.t.8.t.y.e.e.r.:.:.t.y.r.r.:.r.r.r.y.y.",
"r.r.r.r.r.r.r.t.r.:.r.r.r.r.r.r.t.:.r.r.r.:.r.r.r.r.t.r.r.r.r.r.t.t.8.8.r.r.r.e.e.e.t.y.8.t.9.t.y.e.e.r.:.8.8.t.r.r.r.r.r.r.t.e.",
"r.8.r.r.r.r.r.r.r.r.r.r.r.r.:.r.r.r.r.r.t.r.t.r.r.r.r.:.r.r.r.r.t.r.w.:.r.:.:.r.e.e.8.9.8.t.y.e.r.r.e.r.8.8.8.8.i.r.e.w.:.:.t.t.",
"r.r.r.r.r.:.t.r.r.r.r.r.r.r.r.t.r.r.r.r.r.r.r.r.r.r.r.r.r.r.r.r.r.:.r.r.r.:.r.r.e.t.9.9.8.t.e.r.9.r.e.e.9.9.9.8.t.t.e.r.:.r.t.t."
};
