/* XPM */
static char *_207_3327884a2ff10cc680b5f4113b3d9bdd25d3a6fca9e920387fa1256e58ba5b7c[] = {
/* columns rows colors chars-per-pixel */
"64 64 132 2 ",
"   c #7B3E3E",
".  c #7A4617",
"X  c #7B4811",
"o  c #7B431F",
"O  c #7E452A",
"+  c #7D4435",
"@  c #7D413C",
"#  c #7B3E45",
"$  c #7B3C4C",
"%  c #7B3B53",
"&  c #79365A",
"*  c #7C3B5C",
"=  c #773661",
"-  c #7A3663",
";  c #7C3A63",
":  c #7B366C",
">  c #7D396C",
",  c #782E79",
"<  c #7C3674",
"1  c #7D3972",
"2  c #7B347B",
"3  c #7E4146",
"4  c #7E404B",
"5  c #7F405D",
"6  c #81482A",
"7  c #804632",
"8  c #803F5F",
"9  c #803F61",
"0  c #80377E",
"q  c #80397F",
"w  c #81424A",
"e  c #8D5058",
"r  c #9E635D",
"t  c #814060",
"y  c #83406B",
"u  c #89456A",
"i  c #924E75",
"p  c #96557B",
"a  c #A06464",
"s  c #A66C68",
"d  c #A26479",
"f  c #B67A70",
"g  c #D6AB3C",
"h  c #D9AD3E",
"j  c #D5A745",
"k  c #D6AA43",
"l  c #D9AD43",
"z  c #D5A74C",
"x  c #D8A64D",
"c  c #D7AA4C",
"v  c #D9AC4B",
"b  c #DDB042",
"n  c #DCB04C",
"m  c #D5A653",
"M  c #D7A854",
"N  c #D9AA54",
"B  c #D6A65B",
"V  c #D8A75C",
"C  c #D7A85A",
"Z  c #D9A95C",
"A  c #CB9765",
"S  c #C28A71",
"D  c #D69F7C",
"F  c #D6A562",
"G  c #D8A664",
"H  c #D9A864",
"J  c #D6A36C",
"K  c #D9A56C",
"L  c #DAA86C",
"P  c #D6A274",
"I  c #D9A475",
"U  c #D6A17B",
"Y  c #D9A47B",
"T  c #792F86",
"R  c #762C8D",
"E  c #7A2F8C",
"W  c #7C3384",
"Q  c #7C328C",
"!  c #772C94",
"~  c #7A2E93",
"^  c #7B2E9C",
"/  c #773090",
"(  c #7C3293",
")  c #7D319B",
"_  c #7627A6",
"`  c #7827A7",
"'  c #7729A4",
"]  c #7B2CA6",
"[  c #7727AA",
"{  c #7629A9",
"}  c #7B2CAB",
"|  c #7E31A5",
" . c #7E30AB",
".. c #7B2BB1",
"X. c #7F30B0",
"o. c #80368D",
"O. c #813A88",
"+. c #813599",
"@. c #8030AB",
"#. c #802FB0",
"$. c #8031B2",
"%. c #8F4A8B",
"&. c #9E5C80",
"*. c #AC6D80",
"=. c #BA7C89",
"-. c #B26EA7",
";. c #CD9385",
":. c #D69E83",
">. c #D89F82",
",. c #D69D8B",
"<. c #D99F8C",
"1. c #C08393",
"2. c #C68897",
"3. c #CD8E99",
"4. c #D69B92",
"5. c #D99E94",
"6. c #D3969C",
"7. c #D79A9C",
"8. c #D99C9B",
"9. c #D7A082",
"0. c #D9A284",
"q. c #D7A08C",
"w. c #D9A18B",
"e. c #DAA092",
"r. c #D597A3",
"t. c #D99CA1",
"y. c #D596AB",
"u. c #D99BAB",
"i. c #D898B1",
"p. c #D693BE",
"a. c #D692CB",
"s. c #D895CA",
/* pixels */
"} } ] } } } ] ] } } ] ' } } } ..} ..} } } } } } ] } ......} } } } } } } } ] } } ] } ....} } } ] } } } } } } } } } } } } } } } } ",
"} } } ] ] } } } } } } } } } } } } } } } } } } ] ] ] ....} } } } } ] } } } } ] } } } ....} } ] ] } } } } } } } } } } } } } } } } ",
"....} } ] ] } } ....} } } } } } ] ] } } ..} } ] ] ] } } } ] } ] ] ] | } } } } ] } } ....} } } ] } } } } } } } } } } } } } } } } ",
"..} } } } } } } ......} } } } } ] } } } ..} ] ] ] ] } } } ] } ] ] ] ] } } } } } ] } } } } } } } } } } } } } } } } } } } } } } } ",
"} } } } } } } } } } } } } ] } } } } } } ..} } } ] ] ] } } } } } } ..} } } } } } ] ] ] } } } } } } } } } } } } } } } } } } } } } ",
"} } } } } } } } } ] } } ] } } } } ..} } } } ..} } ] ] ] } } } } ......} } } } } ] ] ] } } } } } } } } } } } } } } } } } } } } } ",
"] } } ..} } ..} } ] } } } } } } ....} ] } } } } } } } ] } } } } } } } ..} } ..} } } } } } ....} } } } } } } } } } } } } } } } } ",
"] ] } ..} } } ..} } ] } } } } } } } } ] ] } } } } ..} } } } } } } } } } } ..} } } } } } } } } } } } } } } } } } } } } } } } } } ",
"] ] } } } ] } } ] ] } } } ..} } ]  .] } }  .} ......} } } } } } } } } } } ..} } } } } } @.] } } } } } } } } } } } } } } } } } } ",
"] } } } } } ] ] } } } } } [ } ] ] ] ] { { } } } } } ..} ..} } } } ^ T 2 W ~ ^ } } } } ] ' } } } } } } } } } } } } } } } ] } } } ",
"] ] } } } } } } } } } ] } ] ] ]  .]  ... .' } } } } } } } } } } } W 4.Y <.% Q ] } } } } } } } } } } } } } } } } } } } } } } } } ",
"] ] ..} } } } } } } } } } ~ O.%.W ( ] } }  .' ] ] ] } } } } } } ` 2 Y B H ,.2  .} } } } } } ] } } } } } } } } } } } } } } } } } ",
"} } } ..} } ........} { } W 4.P q.5 / } } ] @.} ] ] } } } ] } } @.W ,.G m Y < ] } } } } [ } ] ] ] } } } } } } } } } } } } } } } ",
"} } } } } } } ....{ } X.} 2 P M C q.W ] }  .} } ] } } } ] } } } ] T # J x K - ( ^ ^  .} ..} } } } } } } } } } } } } } } } } } } ",
"} ] } } } } } ] | } }  .{ W q.C M P 2 ] ] } { } } } } } ] } } } } E 8 >.N B 8.- 1 W ^ { } } } } } } } } } } } } } } } } } } } } ",
"} } } } } } ] ] ] | ] } ..Q # K v L p / ^ } } } } } } } } } } } @.E % D M N U @ d a.) } } ] } } } } } } ] } } } } } } } } ]  .} ",
"} } } } } } ] } } | ' }  .Q 5 U M C 8.> ( } } ..} ] } ] } } } | ] W 4 P M j N J 4.p.) } } } } } } } } } } } } } } } } } } } } } ",
"} } } } } } } } } } } } } / ; q.Z M 0.; R } ..} } } ] ] ..' ) Q 2 & S G c n M P 3 > ^ } }  .} } } } } } } } } } } } } } } } } } ",
"} ....} ] } } } ....} } ] / : 4.m N :.* ) ......} ] ] } } ^ < # 0.K Z z k M I 3 < ~ } } } ^ } } } } } } } } } } } } } } } } } } ",
"} } } } } } } } ....} ] } ) W 1.F M Y $ Q ....{ } ] +.E W > r.Y M k n c l C q.* / ..} } } } } ] } } } } } } } } } } } } } } } } ",
"] ] } } } ] } } } { ] } }  .! > I c Z >.W } } } ..^ : # >.K V N l l V F v C w.* ( } } @.{ X.} } } } } } } } } } } } } } } } } } ",
"] } } } } } } ] } } } | { } X.< P l k I 2 ] +.~ W : t.P x h x N F I . J c Z :.- Q } ` } ..} } } } } } } } } } } } } } } } } } } ",
"] } } } } } } } ..} { }  .} } W P l g J 2 ] Q : a U F z l c B D * * + J x Z ,.9 ~ } } } ..{ ] } } } } } } } } } } } } } } } } } ",
"] } } } } } } } ..} } } } } } 2 0.c g H 0 E - 8.J M l v B K ,.$ W 2 ;.H c m 8.: ^ @.} } } } } } } } } } } } } } } } } } } } } } ",
"} } } } } } } } ..} } } } } } Q e K c J 1 2 ,.V N j l Z 4.9 0 T W 9 I c g H p / ] ] ] ] ..{ } } ] } } } } } ] } } } } } } } } } ",
"} } } ] } } } } } } } } } } } / * 9.c H & i L v N B G :.: o.o.o.- 4.B l k I < ] } ] ] ]  .} ]  .} } } } } } } } } } } } } } } } ",
"] } ] } } } } } ] ] } } } } } / * q.m C   8.V c B D 3.0 o.+.Q - :.Z v x H ;.W } } } } } { ..{ { } } } } } } } } } } } } } } } } ",
"} } ] } } } } } ] ] } } } } } ) < 6.F N 6 >.m v F O % 0 E , 9 5.V j v V :.9 E } ( / W W | ..} } ..} } } } } } } } } } } } } } } ",
"} } } } ] ] } ..} } ..} } ] ] ) ) > K M X J N x F o 8 8   f I V v c V 0.- o.] +.< $ q.4./ ......} } } } } } } } } } } } } } } } ",
"....} } ] ] } ....} } ..} ] ] ] ] W 0.F P A B M V K D D J V x l c V >.$ W ~ T - e.U F 9.2 } X.{ } } } } } } } } } } } } } } } } ",
"} } } } ] ] } ..} } } } } } } ..} ( $ ,.4.+ I B N x V m x x l j V D - Q W - <.J C H 9.4 / ]  .] } } } } ] } } } } } } } } } } } ",
"} } ..} ] ] } } } } } } } } ....} ~ : i.r.3 @ 0.J V V V Z V G K >.w < 2 * 8.B l c J 6.< ( } ] ] } } } } } } } } } } } } } } } } ",
"} }  .} } } } } } } } } } } } } } ^ W -.y.% < < *.4.w.q.,.5.u.; 0 : $ ;.Y V l l B 0.< ) ] } ] } ` #...} } ` } } } } ] } } } } } ",
"} } } } } } } } } } } } } } } } } ] ) T s.1 ^ ^ W 1 = - & > , W W - ,.B x k g v J w T } ] } } } } } ....} } } } } } } } } } } } ",
"} } } } } } } } } } } } } } } } } } ] ] ) ~ | ] ^ ) ^ ( Q ~ +.W % 0.V x k k l Z :.% ( { @.} } ..#.} ` @.} ] } } } ] } } } ] } ] ",
"} } } } } } } } } } } } } } } } } } } }  .} } } } } } ] @.^ E ; 0.B v l b h j V 8.- ( ] ] } ..} } } } } ] ] } } } } } } ] ] } } ",
"} } } } } } } } } } } } } } } } } { } ] } } } ..} } } } } Q 8 :.B x l h g h h H r.2 )  .{ } } } } ] ] ] ] ] } ....[ ....} } } } ",
"} } } } } } } } } } } } } } } } ..} } } } } } ` } } } ! Q : :.V x l x x N c l F * T | | ) ( / Q ~ ^ ] ' ] ] } ....} ..} } } } } ",
"} } } } } } } } } } } } } } } } { } }  .} ` } } } } @.Q % :.C c l N B K   I m J : ) | ( < * ; > < T ] @.] ] @.] } } } ] ] } } } ",
"} } } } } } } } } } } } } } } } } X.} } } } } } } ^ Q ; >.C v j x G D O   ,.H Y 1 ( 2 > 7.q.,.5.r.d E ] ] ] ] } } } } } ] } } ..",
"} } } } } } } } } } } } } } } } ] }  .] } } } } ] Q % q.F v b k K 4.: , % 4.I ,.- > ,.L B V x V G :.; Q ] } } ] ] } } } } } } } ",
"} } } } } } } } } } } } } } } } } { { } } ..} ] ) 1 ,.V z v M P s 9 +.E 1 i.,.@ 4 4.V l h h g g g H r.W ) } } } ] ] } } } } } } ",
"} } } } } } } } } } } } } } } } ..} ] ]  .} } ^ < 2.J n l C e.; W ! ' ' ( 2 % + I V v g h b h h h V 5.: ~ } ..} ] ] ] } } } } } ",
"} } } } } } } } } } } } } } } } } } ] ] ] } } / % 0.Z z B 0.- Q | } } ' | T y.D M h h h v j h h h M <.; / } @.} ] ] } } } } } } ",
"} } } } } } } } } } } } } } } } } } ] ] ] ] ] 2 0.M j F e.; W ] ] } } ] ! : >.B l g g c V V x h h N ,.& o.} } ` ......} ] ] } } ",
"} } } } } } } } } } } } } } } } } } } ] ] | } 2 P v C 0.= / | } } } } ( q =.F l h v z K <.O N h h Z >.9 ( } ] } ......} ] } } } ",
"} } } } } } } } } } } } } } } } } } } } } } } W w.P r.- Q ^ } ..} } } W # I N g h m 0.=.< * J g g m <.- ~ $.] ' } ..} } } } } } ",
"} } } ] } } } } } } } } } } } } ....} } } ..} / % u.< Q ]  ...{ } ] ~ 0 >.Z l l V Y % 2 +.2 I g h Z ,.; ~ {  .] } } } } } } } } ",
"} } } } } } } } } } } } } } } } } } } } } } } ] / / ( | ] } } } } ~ 1 8.K c l N ,.; W ^ ] 2 L g g V w.; ~ } @.` ] } } } } } } } ",
"} } } } } } } } } } } } } } } } } } } } } } } }  .} } ] } } } } ] ( - 8.V c B 0.; Q ^ ..} 2 Y k l Z 4.9 ~ ` ] @.} } } } ..} } } ",
"} } } } } ] } } } } } } } } } } } } } } } } } } } } } } } } } } } ) 2 u.V V 5.* Q | ] [ ..W 0.M g V u.2 +.} } ` } ] } } } } } } ",
"} } } } } } } } } } } } } } } } } } } } } } } } } } } } } } } } } ' ^ : ,.:.- o.] } ..#.} Q r F x F 8 E ] } } } } } } } } } } } ",
"} } } } } } } } } } } } } } } } } } } } } } } } } ] } } } } } } } } ] ) W W ~ ] ] } } } ] ( $ Y M K 1 ] } } } ] } } } } } } } } ",
"} } } } } } } ] } } } } } } } } } } } } } } } } } } } } } } } } } } } } ..} } ..} ] ..} ] / * q.V I 0 } } } } } } } } } } } } } ",
"} } } } } } }  .} } } } } } } } } } } } } } ] } } } } } } } } } }  .} } } } } } {  .'  .} ( = q.V I < } } } } } } } } } ] ] } } ",
"} } } } } } } } } } } } } } } } } } } } } } } } } } } } } } } ] ] ] ] ] } } } } } ] ] ] ] / ; e.J 0., } } } } } ..} } ] } ] } } ",
"} } } } } } } } } } } } } } } } } } } } } } } } } } } } } } } } ] ] } } } } {  .] ..{ } { ( ; t.,.$ Q ] } { } } } ..} } ] } } } ",
"} } } } } } } } } } } } } } } } } } } } } } } } } } } } } } } } } } } } } } { ] X.{ ....] ( 1 i.i.> ( '  ...} X.} } } ] ] } ....",
"} } } } } } } } } } } } } } } } } } } } } } } } } } } } } } } } ] { ..} } }  .{ ' } ....X./ 2 s.a.2 (  .} } } ] } } ] ] ] ] ....",
"} } } } } } } } ] } } } } } } } } } } } } } } } } } } } } } } } } } } } } } }  .} } ..{ { | / W Q Q ) ] { ..} } } ] | ] ] } ....",
"} } } } } } } } } } } } } } } } } } } } } } } } } } } } } } } } ..} } } } ] } } } } } ] ] ] ] ^ ] } ] } } { } } } ] } } } } ....",
"} } } } } } } } } } } } } } } } } } } } } } } } } } } } } } } } } } } }  .] ] } } } ..} } } ` } } } } } } X.} ..] } } } } } } } ",
"} } } } } } } } } } } } } } } } } } } } } } } } } } } } } } } } } ....} } ] } } } } #.} ] } ] } } } } } ] } ..} } } } } } } } ] ",
"} } } } } } } } } } } } } } } } } } } } } } } } } } } } } } } } } { } } } } } ] ` } ..} } ] } } ] ] } } } ' X.{ } ] } } } } } ] "
};
