/* XPM */
static char *_5470_eaae3a3e11f18bd4b9922a6a3ca8b3513bbe3eb7a415094de78dfc46c160c190[] = {
/* columns rows colors chars-per-pixel */
"64 64 145 2 ",
"   c #6E1D01",
".  c #7C1604",
"X  c #731D03",
"o  c #7B1B05",
"O  c #7D160A",
"+  c #771B08",
"@  c #7C1B09",
"#  c #5D2600",
"$  c #552E00",
"%  c #5C2C00",
"&  c #463400",
"*  c #4E3500",
"=  c #443C00",
"-  c #4E3900",
";  c #533100",
":  c #5B3000",
">  c #563E00",
",  c #642601",
"<  c #6C2301",
"1  c #622A01",
"2  c #6B2A02",
"3  c #722204",
"4  c #64330A",
"5  c #723F10",
"6  c #2F4200",
"7  c #2E4800",
"8  c #324100",
"9  c #384100",
"0  c #424000",
"q  c #4F4402",
"w  c #544701",
"e  c #584304",
"r  c #594309",
"t  c #5C5C15",
"y  c #624E07",
"u  c #6A430A",
"i  c #63570F",
"p  c #6A4711",
"a  c #6E4E15",
"s  c #724614",
"d  c #635315",
"f  c #745016",
"g  c #74571D",
"h  c #715F1F",
"j  c #6A631F",
"k  c #7D5D22",
"l  c #726924",
"z  c #736B2A",
"x  c #7C7F36",
"c  c #870E05",
"v  c #8C0D06",
"b  c #8F070B",
"n  c #860F09",
"m  c #8D0D0C",
"M  c #930C0C",
"N  c #990D0E",
"B  c #821506",
"V  c #8B1107",
"C  c #821A06",
"Z  c #84140A",
"A  c #8C120C",
"S  c #82190A",
"D  c #92120D",
"F  c #8E0D11",
"G  c #940D11",
"H  c #990F16",
"J  c #8E1211",
"K  c #931012",
"L  c #8E3B1B",
"P  c #904D23",
"I  c #845D26",
"U  c #836529",
"Y  c #867434",
"T  c #8F7538",
"R  c #8A7D3B",
"E  c #5ABD37",
"W  c #5DBE3D",
"Q  c #6CB63F",
"!  c #62BE3E",
"~  c #69BE3F",
"^  c #5CC137",
"/  c #56C23B",
"(  c #5EC23D",
")  c #61C13E",
"_  c #5EBE41",
"`  c #7DAC47",
"'  c #7DAD4B",
"]  c #6DB544",
"[  c #63BE42",
"{  c #6BBB44",
"}  c #6EB748",
"|  c #65BE48",
" . c #6CBB49",
".. c #73B445",
"X. c #79B245",
"o. c #72B946",
"O. c #74B549",
"+. c #7BB24B",
"@. c #72B94A",
"#. c #7DB84E",
"$. c #7FAE50",
"%. c #57C240",
"&. c #5EC141",
"*. c #60C140",
"=. c #68C247",
"-. c #64C248",
";. c #6AC149",
":. c #848535",
">. c #92813B",
",. c #838E42",
"<. c #958445",
"1. c #9D8E4B",
"2. c #869344",
"3. c #93974B",
"4. c #99974C",
"5. c #949C4C",
"6. c #9C9D4D",
"7. c #959F50",
"8. c #9D9D54",
"9. c #9F9558",
"0. c #9E9E58",
"q. c #A0934F",
"w. c #AA964D",
"e. c #A39D54",
"r. c #A6965A",
"t. c #AB965A",
"y. c #B5945B",
"u. c #80A545",
"i. c #89A246",
"p. c #85AB46",
"a. c #8DA54D",
"s. c #84AB4B",
"d. c #8AAA4D",
"f. c #94A44D",
"g. c #99A24F",
"h. c #90A94B",
"j. c #81B14C",
"k. c #89B14C",
"l. c #8CA551",
"z. c #8CAA52",
"x. c #94A351",
"c. c #9BA253",
"v. c #92A957",
"b. c #92A959",
"n. c #82B251",
/* pixels */
"*.) &.*.) *.*.&.) *.*.*.*.*.*.*.*.*.*.&.*.*.) *.*.) &.*.*.*.) ( &.&.[ [ ! ) ( ( *.[ *.) E ) -.*.*.*.*.*.( *.*.*.*.*.*.&.*.*.*.&.",
"*.*.*.*.&.*.*.*.*.*.&.) ) &.*.) &.) ) *.*.) &.*.*.*.*.*.*.*.&.&.&.&.! [ *.) ) ) -.*.! ) ) ( *.&.*.*.*.*.*.*.*.*.&.) *.) ) *.*.) ",
"*.) ) &.*.*.&.*.*.) *.*.*.*.*.&.*.*.*.*.*.) *.*.*.) ) &.&.) *.&.&.&.&.[ *.) ) ) / -.*./ &.( &.( *.*.*.*.*.*.*.*.*.) &.*.*.) *.*.",
"&.*.*.*.) *.*.) *.&.*.*.*.*.) *.*.&.) *.*.&.*.*.&.*.*.*.*.*.*.&.&.&.[ *.*.) ) ) -.&.-.&.( &.( *.( &.*.) *.) &.*.*.*.*.*.*.&.*.*.",
"*.*.) *.*.*.*.*.*.) *.&.&.*.*.*.*.*.*.*.*.*.*.*.*.*.) *.*.*.( ) ) ) ) &.*.*.| &.%.&.( ) ) ! ) ( *.*.) &.*.*.*.*.*.*.&.*.*.&.*.*.",
"*.) &.*.*.*.*.&.&.*.*.) ) *.( *.*.*.&.) *.&.) *.*.) &.*.*.*.[ ( ) ) ( &.*.*._ | O.X.} { ~ ! W =.*.*.*.*.) *.) &.*.*.) *.*.) ) *.",
"*.) *.*.( *.*.) *.*.*.*.*.*.*.*.&.) *.) ) *.) &.*.) *.*.( *.*.) ( ) ( ( &.&.&.O.R * 5.Q ~ ~ *.*.*.( *.*.*.*.) *.*.&.*.*.*.*.&.*.",
"*.&.*.*.*.*.*.*.*.) *.&.) *.*.*.*.*.*.*.&.*.*.*.*.&.*.*.*.*.*.*.) ) ( &.&.[ [ z., < = p.{ ! *.&.*.*.*.*.&.*.*.*.*.) ) *.&.) *.*.",
"*.*.) &.*.) *.*.*.*.*.*.( ) *.*.*.*.) &.*.) *.*.) &.*.*.*.) *.&._ *.*._ *.{ +.x X @ $ v.} &.-.*.*.) *.*.) *.&.) *.*.*.) *.*.) *.",
") *.*.*.*.*.&.) ) &.*.*.[ &.) &.*.&.*.*.*.*.) &.*.*.*.*.&.*.*.) [ [ _ =.[ @.s.* @ B % 7..._ &.&.*.&.*.) &.*.*.*.( *.*.*.&.*.*.*.",
"&.*.*.*.*.*.*.*.*.*.*.*.) &.*.*.*.) ) *.*.) *.*.*.*.&.) *.*.*.*.*.*.( ( *.O.x.: @ @ % x...*.*.*.[ &.*.*.*.*.*.*.*.*.*.&.*.*.&.) ",
"*.*.*.*.) &.*.&.*.*.&.) *.*.*.*.*.*.&.*.*.&.*.*.*.*.*.*.*.) *.&.) ( ( &.*.O.c.% . S % x.o.*.[ ! *.*.&.*.) *.*.) *.*.*.) &.*.*.*.",
") *.) *.) &.*.) *.) *.*.*.) &.*.( *.*.*.*.*.*.*.( *.*.*.*.*.*.) ! ! &.*.&.} 7.% B . % x...( ) ) ) *.*.*.*.*.*.&.) *.*.) ) *.*.*.",
"&.*.&.*.*.*.*.*.*.*.&.) *.*.*.*.*.*.*.*.*.&.) *.*.*.*.*.*.) *.*.) | @.+.n.l.8.% B . % c.] ) ) ) ) &.) *.) &.*.*.&.*.*.&.*.*.*.( ",
"&.*.*.) *.*.*.&.*.*.*.*.&.) ) &.*.*.*.) ) *.) &.*.) ) &.*.*.*.) ) ] z.<.# , y.% B S , 8.O.*.W [ *.) &.*.) *.*.*.*.*.*.*.*.*.*.*.",
") *.*.*.( [ ) ! *.&.&.*.) [ *.*.) &.[ *.&.*.&.*.*.*.*.*.*.[ [ ] X.a.; 1 3   y.% S J   T s.{ @.O.s.s.s.+.} [ [ *.) ) ) *.*.*.) &.",
"*.*.! *.*.[ ! ! W &.&.&.=.W *.*.=.*.! [ *.( ( ( ! ) *.) *. .O.a.U < 3   ; e.r.% O D B 2 l.$.b.r.,   < ; 7 ] | ) ! ~ ( ( ) ) ) ) ",
"&.*.*.*.[ &.) ! -./ &.;.` z.j...[ *.*.*.) ) &.&.*.[ *.[ ] +.x.; + Z V 3 3.z.e.% S M M . r.t $ < Z J + % v.O.| ! ! ) ( ( [ [ *.( ",
"( &.( [ &.&.*.*.( ( ) X.* , ; x...*.*.) &.&.&.&.W *.) o.d.1.1 @ Z Z @ # n.+.x.% S M M V o o C B C 3 r b.O.| ! ! ) ) ( ( *.[ *.*.",
"( ( *.&.&.&.&.*.) ( ( s.< B 3 g n._ ) ) %.&.&.-.-.{ ..a.> < S A G S , e.O.O.g.% B M G M M v v B 2 R s.]  .*.! ) ( ( *.[ &.*.*.[ ",
"( ) [ [ | &.| &.*.*.*.s.< m Z 1 ' [ ) ( &.-.&.&.[ ..e.% @ Z A M m X l j. .O.x.% B M G G b n . , 5.X.;.=.! ) =.! &.&.&.&.&.&.&.| ",
"( ( [ [ &.[ *.[ ) ! [ s.1 O J 3 x. .! -.&.W [  .X.f.% S m H b A o 1 s. ._ O.c.% A M G Z .   # q.+.) ( &.) ) ! *._ &.&.&.&.&.*.&.",
"( ( [ ) *.*.&.&.&.*.[ +.<.< Z o * s.o.W &.*.} s.1.2 . A F G K S ; x.o.W -.O.7.% S G G O % ` z.O.{ *.) / ) ( ( *.&.&.&.&.) ) ! ) ",
"*.*.! ) ) ( &.&.&._ [ O.8.% B B , q.O.*.[ O.d.h < B V M b J m 3 8.X.[ %._ } f.$ S M M o 0.+.[ ) ! ) ( &.( ( *.*.&.&.&.( ) ) ~ ) ",
"&.&.&.( ( ( ( &.&.&.=.X.6.1 C V o I +. .O.x.4 + O c D M m A X s s.{ [ &.&. .' w + G M X a.{ | ! [ &.&.*.[ ! [ *.[ *.*.) ) ( ( ) ",
"&.| ) ) ( ( &.*._ *.W ..a.; . D A < 8.d.c.; O F M A M D V + % c.O.! *.&.&._ o.5.X G D 3 s.( =.*.&.[ *.[ [ [ ) [ [ [ ! ! ) ) ( ( ",
"&.[ [ ) ) ( *.*.&.&.( [ ] v.X K A C < P 3 S J G F M b J O 1 x...[ *.*.W *.) ! d.< G M 3 s.*.( *.&.&.&.*.) *.) ! *.) [ [ *.&.&.&.",
"[ *.) ) ) ) *.*.*.*.&.*._ ' , F F V V D M M G M G K J @ 1 c.O.*.! &.&.&.( ) *.p., m M   d.( *.&.&.&.&.*.*.*.) ) &.) *.*.*.&.&.&.",
"&.*.&.( *.[ ! ! *.[ &.&.&.j.$ @ A G G b M M N M G n @ % a.O.;.W ( -.) ) ) ~ ) s.: C v 3 s.*.*.*.&.&.&.&.*.&.&.&.&.( *.*.&.&.*.[ ",
"[ *.&.&.&.) ) ! *.) _ _ *...8.% Z G G G M M M M A + 1 e.@._ *.*.&.( ) ) ) =.*.+.q., @ 1 s.*.*.! &.&.&.&.*.*.&.&.&.&.*.*.&.&.*.[ ",
"&.( *.) ) ) ( &.( ( *.[ *.=...c.o G M G M G M A X % h...| *.! W -.W *.) *._ _  .s.= $ R #.&.*.! ) ! [ *.&.*.&.&.) &.) *.( *.[ [ ",
"&.) *.) ) ) &.&.) ( =.*.[ [ ) ` ; X @ . S @ + , k f.X.) ! W *.=.W -.*.[ *._ &.[  .s.6 z.] ) ! *.) ) *.[ [ *.&.&.( [ ! ( ) ) *.&.",
"*.*.*.*.) ) *.( &.*.*.*.[ &.*.{ ' 2.> 1 % $ q x.' o.=.! *.) *.*.&.*.*.! ) ) *.*.=.{ ] { *.) ! &.[ *.*.*.*.) &.*.) *.*.*.&.*.*.*.",
"*.*.*.( *.&.*.*.) *.*.*.) *.) &.*.o.a.c.8.a.j.@.[ ! *.! *.*.*.( ( &.*.*.=.! &.&.&.&.&.) ) *.*.[ ( *.) *.*.*.*.*.&.*.*.*.) *.&.) ",
") &.*.*.*.&.*.*.&.) *.) &.*.*.) *.[ { Q ..o.{ ! *.! *.[ =.*.( ( ( ) ) ) *.*.*.&.&.*.[ *.) ) ! ( *.*.*.*.) &.*.*.*.*.*.*.*.*.*.*.",
"*.*.*.*.*.) *.*.*.*.*.&.*.) *.*.! *.( ) ) *.( &.) ! *.) | [ ( ) ^ ) ) o.] .. .O.........{ ~ *.( *.) &.*.*.*.*.*.) *.&.) *.&.) *.",
"*.*.*.*.*.*.) ( *.) *.*.*.*.*.&.*.( *.( ! ~ ( ( ( *.W [ [ *.*.( &.[ ..k.x.x.c.f.c.c.x.l.O.;.&.&.&.) *.*.&.*.( *.) &.*.*.) &.*.) ",
") &.*.) *.&.&.[ *.&.*.*.*.*.*.) &.W ( ( =.*.^ / ( [ ! *.*.[ { O.$.l.3.& $ % % : % % % * ,.+.{ &.&.&.) *.*.) *.*.*.[ ( *.*.*.*.*.",
"*.*.*.&.*.) *.*.*.*.*.&.&.*.*.*.-.&.&.&._ [ *.&.*.) *.) W  .' 0.% X @ B B B C . S . S @   p ` *.) *.) *.*.&.) *.*.*.) *.*.*.*.*.",
"&.*.) *.*.*.*.*.( *.*.) *.*.*.&._ -.*._ -.&._ *.*.! =.~ O.s.j % S G G M N M M M G K b M D   z.! [ *.&.*.*.*.*.*.) &.&.*.*.*.) &.",
") *.*.*.*.*.*.*.) *.*.) *.*.) [ [ [ ) ( ( &.=.*.) ( *...8.% 3 S m G G G G G b M M G G M M 3 x...[ *.&.*.&.) *.*.*.*.*.) &.*.) *.",
"*.*.&.) ) &.*.) *.*.*.&.*.*.*.&._ *.( ) &.*.[ o.....+.x.% . A G F J m A O + 3 < + o J M G + = j. .) *.*.*.*.*.*.*.*.*.&.*.*.&.*.",
"*.) *.*.*.*.*.&.*.&.*.&.*.*.*.) &.( ( ( ( [ X.` f.e.r.5 o A A F J Z o 3 % d a.d.v.t.. N M o ; d.] ) *.) *.*.*.*.*.*.*.) &.*.*.) ",
"*.&.*.*.*.*.( [ ) *.*.) &.) *.&.&.) ( ) ) ] ' 8 * , < @ V N G A @ 2 % w.c.s.{ { ' z o M M o e d.{ *.*.*.&.) ( *.&.) *.*.) *.*.*.",
"*.*.*.) ) *.*.) *.*.*.*.*.&.*.*.) ) ! *.[ [ +.9 , S Z n D M M o $ 5.k.Q X.{ [ O.0., S G G X x.Q ! *.*.*.&.) *.*.) *.*.) *.*.*.&.",
"( *.*.&.&.*.*.&.( *.*.*.*.*.*.*.*.) { { [ { O.l.# @ Z J M V D L c.+.~ ( *.!  .d.s . V M M 3 d.*.*.*.) *.*.*.*.*.*.*.&.*.*.*.*.) ",
"*.*.*.*.*.&.*.*.*.*.&.*.*.*.*.&.&.&.! ) ) *.[ X.l.* 2 @ V D V < a.{ ) ^ &.-.O.5.< V M M M   l.[ ) &.*.*.) *.*.*.*.*.*.*.*.*.*.*.",
"*.*.*.*.) *.*.) *.*.) *.*.*.*.*.*.&.) ) ) W *.[ +.b.9.% < o 3 a +.[ ~ ~ O.s.3.$ B M G G G + Y d.d.s...} [ [ ( ) ) &.&.) *.&.) *.",
"*.) &.*.*.) *.*.&.! *.*.*.*.*.*.[ [ ) ) ( ( [ { {  .O.z.i - = a...=.! ..4.% < . v M G G G Z o 3 3 1 = s.} ) ) ( ( ) *.*.*.[ &.[ ",
"*.*.*.*.&.*.*.*.*.*.*.*.( *.) [ ) ! ) ( ( ( *.[ ! -.&.[ p.a.s...[ [ [ ' % S v K M M G G F G M M V 3 ; l.O.) ) ) ) ) *.&.[ &.*.*.",
"*.) ) &.) *.&.) &.*.*.) *.*.&.*.*.&.&.&.&.*.*.! &.&.%._ o.]  .[ *.-.&.n.2 c G G M M M G G F K D o , t +.{ &.) ! ) ) &.&.[ *.*.&.",
"&.*.*.*.*.*.*.*.) *.*.&.&.*.) &.&.&.%.&.*.*.*.*.-.-.%.&._ ;.*.*.&.%.&.s., D G G G v N M V O . < % e.s. .*.( ! *.) ( &.&.*.*.&.( ",
"*.*.) *.*.*.*.*.*.*.*.*.) *.*.( &.&.&.-.[ [ ) ) ) W ) &.*.( ! *.*.( ( X.u o A K m K N V o 1 * c.s.O. .-.[ E =.) &.[ &.[ *.&.( ( ",
"*.) &.*.*.*.&.) *.&.) *.*.*.*.&.&.&.&.&.) [ ) ) ( ) ) ( *.( *.) ) ( ^ o.c.%   . 3 X X 2 f e.s...{ [ W *._ *.*.*._ &.&.*.*.*.( ( ",
"*.) *.*.( *.*.*.) *.) &.*.*.*.*.&.*.*.*.*.*.) ) ( ( ( ) *.) ) *.) ) ( *.] d.- : y :.a.s.' @. .=.[ ) =.) -.&.&.%.&.&.( *.&.) ) ( ",
"*.&.*.*.*.*.*.*.&.*.*.*.*.*.*.( _ *.[ [ ( &.) ) ( ( *.( ) ) *.) ) *.( *.-.} d.f.p.X.[ &.| _ &.&.) ! ) ( ( *.[ *.&.&.&.&.) ) ) ) ",
"*.*.&.*.*.*.) *.*.) ) *.*.) &.*.*.*.[ ( &.&.{ ) ( &.&.&.*.&.&.&.) ) &.&._ |  .} } { ) ! | *.&.( ) ( ( &.*.[ Q [ *.( ( ( &.*.[ ) ",
"*.*.) *.) &.*.*.*.*.&.*.*.*.*.*.*.*.) [ &.( *.! &.&.&.&.[ *.&.&.*.) *.&.-.&.&.&.&.*.[ *.[ *.( ( &.&./ &.*.[ ~ ~ ! *.( ( &.*.{ [ ",
"*.( *.*.*.*.&.*.*.) *.*.*.*.) &.&.) [ *._ *.[ [ &.*.| [ *.[ [ &.*.*.*.*.[ &.&.&.&._ &.*.*.*.( ( &.&.&.&.&.*.*.[ ) ) *.( *.*.*.*.",
"&.[ *.) &.*.) *.*.&.*.*.*.*.( [ &.) *.) ) *.[ ) *.*.*.[ [ &.*.*.*.[ _ *.*.&.&._ &.&.&.( [ *.( ( &.&.&.&.&.&.&.*.) ) ) &.*.*.*.*.",
") &.) *.( *.*.*.*.*.&.*.*.*.*.*.*.*.[ *.*.&.&.&.&._ *.[ *.&.) [ ( ! [ *.[ ! *.[ *.! ) ) [ *.( &.&.*.*.*.&.( ) ) [ *.[ *.*.*.*.*.",
"*.*.*.*.*.*.*.*.*.) *.*.( *.*.*.! &.) &.&.*.W ( &.&.*.) &.&.&.) ) &.-.[ ) *.) &.*.| ) ) ) *.*.*.*.*.*.*.( ( ( *.[ [ [ _ *.*.*.*.",
"*.*.*.*.*.*.*.*.*.&.*.) ) *.*.) *.[ [ *.( &.&.*.*.) ( ) ) ) ( ( &.&.*.*.) ) ( &.*.*.[ *.[ &.&.&.*.*.*.) ( ( &.&.*.[ _ -.*.*.*.*.",
"*.*.) &.) &.*.*.*.) *.*.&.*.*.&.) [ ( &.) &.*.*.) ( ) ) ) ) ( &.&.%.*.) ) ) ( %._ &.[ &.| &.&.&.( &.) *.( ( &.&.*.*.[ [ *.*.*.*."
};
