/* XPM */
static char *_331_21fb76fb06d5e5fe794326aaca8a6b7e89b9a3aa02ef90ccba1bcb9e63f914a8[] = {
/* columns rows colors chars-per-pixel */
"64 64 114 2 ",
"   c #7E0D1F",
".  c #7D0F26",
"X  c #760F2C",
"o  c #7E1225",
"O  c #76132E",
"+  c #7C132C",
"@  c #6D153C",
"#  c #751434",
"$  c #7A1432",
"%  c #73163B",
"&  c #74183D",
"*  c #5E1A4E",
"=  c #551353",
"-  c #5C1954",
";  c #5D1D5B",
":  c #6B1643",
">  c #661A46",
",  c #6C1945",
"<  c #65164A",
"1  c #691748",
"2  c #65194B",
"3  c #6A1B4A",
"4  c #711C46",
"5  c #631C54",
"6  c #6A1D55",
"7  c #651E5A",
"8  c #6E2050",
"9  c #71245A",
"0  c #541F65",
"q  c #5B2364",
"w  c #4D2274",
"e  c #642864",
"r  c #6C2861",
"t  c #762C61",
"y  c #75356D",
"u  c #7E366B",
"i  c #662A70",
"p  c #643376",
"a  c #60387F",
"s  c #6D3A7F",
"d  c #733574",
"f  c #7B3771",
"g  c #773B74",
"h  c #7B3974",
"j  c #73377A",
"k  c #743A7C",
"l  c #8F0C0E",
"z  c #940C07",
"x  c #990C05",
"c  c #930D0D",
"v  c #990D0B",
"b  c #97100D",
"n  c #8E0E13",
"m  c #840E1D",
"M  c #8A0E1A",
"N  c #920D11",
"B  c #8E1014",
"V  c #86111E",
"C  c #8B111B",
"Z  c #931013",
"A  c #9A1010",
"S  c #921018",
"D  c #840F22",
"F  c #890E20",
"G  c #841123",
"H  c #891222",
"J  c #82142B",
"K  c #801735",
"L  c #832E58",
"P  c #8A355F",
"I  c #873661",
"U  c #813468",
"Y  c #5E3E94",
"T  c #573E9B",
"R  c #5B3F9C",
"E  c #663A84",
"W  c #6C3B85",
"Q  c #653C8B",
"!  c #6B3D8B",
"~  c #713B83",
"^  c #713D8A",
"/  c #633D93",
"(  c #6B3F92",
")  c #4D3FAE",
"_  c #523FA1",
"`  c #583FA4",
"'  c #3D46BD",
"]  c #3E48BE",
"[  c #5C4397",
"{  c #57429F",
"}  c #5C419C",
"|  c #67408F",
" . c #644092",
".. c #6C4195",
"X. c #61419B",
"o. c #4D41A5",
"O. c #4D43AC",
"+. c #5342A5",
"@. c #5A44A5",
"#. c #5244AC",
"$. c #4544B5",
"%. c #4B44B3",
"&. c #4C48B7",
"*. c #4346BC",
"=. c #4A46B9",
"-. c #4349BD",
";. c #4849BE",
":. c #5145B3",
">. c #5849B0",
",. c #3E47C2",
"<. c #3E49C3",
"1. c #4146C2",
"2. c #4149C2",
"3. c #484BC0",
/* pixels */
"c c N c c Z c c c N c c N b n c c c c N N v l z v N c l N c v c N l N l z l v N N c N N v N v N c c c l c c c c c c c c N N N l ",
"c c c c c c c c c c c c c c c c z c N N N v c v N N N c c c c c N N c z z x c c N N N N N c c c c c l v c c c c z l v z c N n n ",
"c N c N N c c c c c b N l c c c z z c c v z N N c c N N N c l v c c c l z c N N v c c N N c N c c c c c N c c c c N c l c c N N ",
"c c c c c c l c c N l c c c c c c c n N c c N N c c c N c v l v c v c c c c S N c c z c l n c c c c N N N N c c c c v c c c N v ",
"c c c N c b n c c c N c b c c N N n N n c N c N N c c c c l n n c c N n c N l n N c z v l l c c c N N N N N N N N c N c c c l z ",
"c N c c c l b c Z c c c l c c c N N N N c c c c c N c c c c n n N c N N N N n n N N v z b l c c c N N N n c N N c c c c c c c v ",
"b c c N c c c c c c N c c c c c c c N c c c c c l z c n c c z v c c c c c c l l N N z z z c N N c N c c c c c c N N c c c N c c ",
"c N c c N c N c c c c l b N c c z c N c c c c c x l c c c c z v c c c z z z c n M D V V B B N n l c c c c c c N c N N c c c c z ",
"c c N c c c c n c c c c N c b l l z N n c l z c c c v N N l c v N c c z z z c m # 1 1 : # J M N c c v c v c z l c c N c c c c c ",
"N c c l c c c b c N c N c c c c v A N l l c c c c N c v c n c c c c c z c c c D f W ^ ^ j 6 $ C N c c c c v v z c N N N c N v l ",
"c c c b N c c c c c b c c c c c z v c N n n c c N c c N N c N c l c N N N c N $ ..) ) ` @./ 9 $ F c c c z z v l c N N c l c c c ",
"Z c N c c c c N c N l c c c c c z z z N n n n c c l c v c N N N n N N N v N N $ Y ) -.' 1.) Q 3 D N c c c z l c c c N N N N c c ",
"c c c c c c l c c n c c N c c N c c c c N N N N l z c N N N n N N n c v v v N X q @.) 2.2.2.O.Q # S N N N v z v c c N N N N c c ",
"c c c N c Z c c c b c N c c c c N c c z N S M m . J n c N N n N N c c v v c c D > Q &.,.1.1.-.} : M M N N N v c c c N N N c c c ",
"c l c c c c N c c c c c l b c N c c N c N M D 4 W j J c N N c c c c N N l v c n O g #.2.1.,.,.{ : m M M l N N c c N N N c c l z ",
"N c b l c c N N c c c N c l c c N c n N S G , W ` / $ N N N z z z c N N N N v N G > +.2.2.1.<.+.U J M S N N c c c c N l c N v c ",
"N c c z c l B n N c c c c l N N N N S M M @ / +.@.^ J N N n c z v v N N N z v c N % } ,.2.] <.O.~ : D N c c c N c N n c c c c c ",
"c c z c c Z n N c N v c N l l c N n N M X f #.$.R = J N S l N c z v N N c c c c N # [ ' -.<.<.%.Q 1 D N c c c N N N N n c c c N ",
"c b z c c c c c v z l c N N N N N c c D * / %.%./ 6 G v v x c z c c c c N N c c N # } <.2.2.<.o.W : D n c c c c c N N N c c c N ",
"c z c c N c c c z z x c c c N N c N M X E o.$.#.^ : M z x x l l N c N c N N l Z n # T ,.*.-.1.:.W : m c c c c v c N N N z z c N ",
"c c c N N c N c c v c c v c z c c n G : [ $.-.#.; O n c v v N N l n l N l Z c c N # ` 2.*.-.<.) ~ : D N N c v z c c N c c z N c ",
"N c N N N N N N N N v v c x c c c V # g O.<.2.o.~ , . n N N N N l n M M V o + $ # 7 _ ,.*.1.<.%.^ : m N B c c x v N N c z z v N ",
"N N c c N n n n N N v c v z c c c G - [ %.<.<.-.o. .3 o M N N A z n V O @ 2 E X.R _ &.*.<.<.1.&.( < D N l l c c N N N c c v c c ",
"S N c c N N n n N c c c N N N c B O W O.-.<.<.<.<.o.| < . n N c c M % u k Q #.*.2.<.*.*.<.<.<.%.R - D N c b c z v N N c c z c c ",
"N c z c c N N N c c v c n n n M V @ [ -.1.1.1.1.*.-.o.( : D n c N J ~ ` #.%.*.1.<.] -.-.,.<.<.*.` i . z z l c N N c c N c c c N ",
"N c z z c N N c z z c l n n n C O y +.-.=.%.) :.3.' <.o.~ % M c c O E ) $.' <.,.<.<.2.2.<.<.] *.=.Q + c z l c c N c c c c N N N ",
"l c v v z v c c x l c l N c z M , ! O.-.O.T w / %.2.2.&.R ; J c v D < ( #.*.2.<.2.<.,.,.<.1.1.*.1./ + c v c v N N N c c N N N N ",
"c c v c l l c v c N l c c c v D e T =.%.X.0 < g +.' -.*.:.! 4 M N M $ 6 Q @.o.%.%.$.,.,.,.<.1.1.2.} X l c c N N c c c N N N N c ",
"c c c c c c l c l N N c z c c X / &.1.#.~ @ + @ [ -.*.3.$.` d # C N M + : f W W ~ / =.<.' ,.2.2.,.} O z N c N c c c c c N c N c ",
"N N N c l c c N M N v x c N m 1 +.,.2.` 6 D B + p o.$.2.1.&.[ * . Z N n H + : 1 : ; _ <.<.' ,.' *.} $ c n n c c c c c c c c c c ",
"c N N N x v c N N n v x c F : ~ #.' 2.} % n N m @ W O.' -.=.O.a + c c n n S C G G : } -.<.<.2.2.*.Y + c N n c c N c c c c z c c ",
"c l N N v z c N n c v v N . 5 / %.-.%.Q O c c n J 8 [ *.1.-.' [ O z c c N N N c c X / $.*.2.1.*.O.E O c N S c c c c c c c c c c ",
"N N N N c c N N c c c c S $ ..$.*.$./ ; D N c N B $ E #.$.] 2.T # b c N N n c c c + i ` $.<.<.=.{ ; J b N N c c c N N N c c N N ",
"c c N c c c N c z z c B   , +.<.<.) ~ % F c N c c H 2 Q o.*.1.@.3 V N c l Z c c l o 9 T &.<.<.%. .2 G c c c c c c c N c c c N N ",
"c z z c c c c v v c l V # j +.] 2.+.t o C c N c c B J :  .O.$.+.k % M z c c c c c V < / O.' ] O.! > G N N c c c c c c n c c N N ",
"c c z c c N N c c z b H : ~ O.-.$.[ @ M n c N N c l n o 5  .+.+.W 3 G z c c c c c G 1 ! O.' -.O.W : D N c N c c c c c c c c v N ",
"c c c c n N N N z z c M > Q o.=.>.E . N N c c z c A l M . : Q X.~ 1 G c c c N c c C , W O.] 1.#.W , F N N N c c c c c c v z N v ",
"N c c c N N n N Z c z m 3 E :.O.Q 5 F c c c c c c c N l N J 5 j U # M c Z c c N c m : W O.<.<.o.W , F N N N c v v c c c c c c N ",
"n c z z z c c n M n c m 3 Q %.@.r + S z c n b l c c c c c n G + G D S c l b c c c G 1 W O.,.1.%.! 1 G N N c N c z c c c c c c c ",
"c c c c c c N n N N N C % h  .W @ C c c N B l l c c c c Z c N c N c l Z l c c c c H <  .%.<.1.:.Q > D c c N N N c c c c c c c c ",
"c c z c z c N N l N N M M $ L : D n c c N N N N c c z z v c N N c c c c l z v c v D < ( %.1.1.%./ < D c v z N n c c c c c N c c ",
"c c c c v z N N c c c n N M H F n c c c N c N n c c v c c z c c c z z c c c v c c D < Q %.2.-.O.Q < F c v c N S N c c c N N N c ",
"N N n n c c c N N z x l N N n N c c c c c N l c c c c c c c c c v N N N n N c c c D < Q #.-.] O.W 1 F c v z N N N c c c n N N c ",
"c n n N N c z c c c z c N N N z z c c z c c l c c c c c c z c c v v A N n N c c c m : ^ o.-.] #.~ % m v v c N N N N c c N N N c ",
"z c N N c c c c c N z z l c N c N N N z c v c N N N N N c c N N z c N N S n N c c M # d _ ' ' +.y O M v c l z N N N c c N N c N ",
"z z N N c c c c c N c N l N N N N N N v c z N N N n N N c c c c v c N N n N N c N N D 6 { ' ] +.3 D N N N c v c N N c c N c c c ",
"c c N n N c c N c c l N c N c A N c N c z c N N l c c c c l c x z N N n c z z c c N n # R ,.2.@.% n N N N c z l N c c c c c c c ",
"c N N N c v c c c N n n l v c z c N c c c v N N n c c c b l z c c N n n l x v v c c c + / 2.,.} # N c N c c c c N N c z l c c N ",
"N c N c c c c b l c N c c c c c c Z c c c c N N c N c c c n c c N N N N c c c c c v v $ R ,.1.} # N c c c N c l c N c c c c c N ",
"c c c N c N N c c N c n c N N c c c c c c c c c c c c c l b c c N N N N c c c c N c v X } ,.1.R $ c c c c c c b c c c c N c c c ",
"c c c c c c b c c N c b c c c c N c N c c c n c b c N c c c c N v v c N c c z c N c v $ @.1.<.[ # c N c c N c c c c c c c c c l ",
"c c N c c N c N c c c c c c Z c c c c l l b c c l N c c N c c c c N N N c c c N N N c +  .O.O.| $ N c c c c c c N c b n N c N b ",
"N c c c c c c c c N b c c N c c c c N b c l N c c N c c c c c c c c c c c c c c N c N D - E | - G c c c c c b n c N c c c c B c ",
"c c N c c N c c c c l c l c n b c c c c N b c c c c c c c N c c c c c c c c c N N N N H , h f , G c N c c N c c c c c c c c c c ",
"N c c c c c c N c N c N c c c c c l c c c c c c c c c c c c c c x c c l c c c N N N N F : f f > G c c c c N c N c N n c c N c c ",
"c c N c c N c c c c c c N c c c c Z c N c c N c c N b n c N b l c c c N c c c N N N N M # P I # C c c c c c c c c c b c c c c c ",
"c c c c c c c c c c c b l N c c n c c c c N c c N c c N c c c c l l c l c N c c c c c N m G G V B N c c c c c c c b c c b N c c ",
"N c c n c N c c c Z N c c c N c b c c c c c c c c c c c c N c c c n n l c c c c c c c N N N n N c c c c c c c B c n N c l c N c ",
"c c c c b n c N c c c c c N c c c c c N c c c c c c c b N c c c c z c c c c N c c c z c c N N N c c c c c N c c c c c c c c c c ",
"n b c c c c l b c c N c c c l b N c c c c N b n c N N c c c c c c c c c N c c c c c c c c c c c c c n b c c c c c c N c c B c c ",
"c c c c N c c c c N c c c c c c n c c c c n c c b c N c c c N c N N c c c c c c c c c c c c c c N c N c c N c N c n c N c c c N ",
"c c N c c c c N c c c c N c c Z b c c c c c c N l c c c c N c N N N c c c c c c c n N N c c v c c c c c l b c c c b c c c c c c ",
"l b c c c c n b c c n c N c c l c c c N c c c c c n N c c c c c c N c c c c c c c c N c N N c c N c c N c c c N c c c c c c c b ",
"c c N c c c c c c N b c c c c c N c c c l b c c c b c c c c N N z c c c c c c c N c c c N N N c c c c c N c c c c c N c c c c n "
};
